<svg xmlns="http://www.w3.org/2000/svg" viewBox="0 0 720 1080" role="img" aria-labelledby="t d"><title id="t">교정 대기 대장</title><desc id="d">대장 47쪽 한서준 이름과 페이지 양쪽에서 충돌하는 두 손.</desc>
<defs><filter id="bleed"><feTurbulence baseFrequency=".035" numOctaves="3" seed="47" result="n"/><feDisplacementMap in="SourceGraphic" in2="n" scale="2"/></filter><pattern id="rule" width="10" height="55" patternUnits="userSpaceOnUse"><path d="M0 54h10" stroke="#9a7442" opacity=".28"/></pattern></defs>
<rect width="720" height="1080" fill="#151719"/><path d="M38 68Q350 15 682 68v915q-330-48-644 0z" fill="#e7ddc8" stroke="#9a7442" stroke-width="11"/><path d="M360 50v945" stroke="#9a7442" stroke-width="6"/><path d="M68 120h584v785H68z" fill="url(#rule)"/>
<g fill="#151719" opacity=".55" filter="url(#bleed)"><path d="M90 172h190v13H90zM90 228h225v12H90zM90 283h180v14H90zM90 338h216v12H90zM90 393h140v13H90zM90 448h210v13H90zM90 503h170v13H90zM90 668h205v13H90zM90 724h163v12H90zM400 172h190v13H400zM400 228h160v13H400zM400 283h210v13H400zM400 338h177v13H400zM400 393h207v13H400zM400 668h183v13H400zM400 724h200v13H400z"/></g>
<text x="80" y="110" fill="#151719" font-family="serif" font-size="24">교정 대기 대장</text><text x="607" y="945" fill="#151719" font-family="serif" font-size="36">47</text>
<text x="420" y="570" fill="#151719" font-family="serif" font-size="58" font-weight="700" letter-spacing="14" filter="url(#bleed)">한서준</text><path d="M406 597h207" stroke="#a3262a" stroke-width="8"/><path d="M425 613h207" stroke="#a3262a" stroke-width="7"/><path d="M602 584l34 19-31 33" fill="none" stroke="#a3262a" stroke-width="8"/>
<path d="M0 870c98-121 212-168 340-143l40 270H0z" fill="#cdbd9e" stroke="#151719" stroke-width="13"/><path d="M720 52c-101 44-195 113-282 210l-64-77C465 74 572 9 720 0z" fill="#d6c9b0" stroke="#151719" stroke-width="13"/><path d="M290 740l26 102M457 238l-54-69" stroke="#151719" stroke-width="8"/>
<path d="M358 540c-26 77-30 150-10 220" fill="none" stroke="#a3262a" stroke-width="7"/>
</svg>
